<?xml version="1.0" standalone="no"?>
<!DOCTYPE svg PUBLIC "-//W3C//DTD SVG 20010904//EN"
 "http://www.w3.org/TR/2001/REC-SVG-20010904/DTD/svg10.dtd">
<svg version="1.0" xmlns="http://www.w3.org/2000/svg"
 width="447.000000pt" height="447.000000pt" viewBox="0 0 447.000000 447.000000"
 preserveAspectRatio="xMidYMid meet">
<metadata>
Created by potrace 1.14, written by Peter Selinger 2001-2017
</metadata>
<g transform="translate(0.000000,447.000000) scale(0.100000,-0.100000)"
fill="#000000" stroke="none">
<path d="M30 4130 c17 -28 30 -53 30 -56 0 -2 11 -23 26 -45 14 -22 33 -55 43
-72 10 -18 126 -219 258 -447 133 -228 253 -437 268 -465 16 -27 52 -89 81
-138 30 -49 54 -91 54 -92 0 -2 39 -70 86 -152 48 -81 98 -168 112 -193 14
-25 53 -92 87 -150 34 -58 102 -175 150 -260 49 -85 97 -168 108 -183 l19 -28
85 148 c47 81 98 171 113 198 15 28 132 232 259 454 127 222 231 407 231 412
0 5 5 9 10 9 6 0 10 4 10 9 0 5 23 48 50 96 28 48 50 89 50 93 0 3 6 13 13 21
8 9 28 42 45 74 l32 57 -451 0 -451 0 21 -33 c11 -18 26 -44 33 -57 7 -14 48
-87 91 -162 81 -140 85 -156 53 -198 -6 -8 -16 -24 -22 -35 -31 -57 -81 -147
-113 -205 -21 -36 -40 -73 -44 -82 -3 -10 -10 -18 -15 -18 -7 0 -662 1138
-662 1150 0 3 795 5 1768 4 972 0 1773 2 1779 4 7 2 56 81 109 175 54 95 104
182 112 195 l14 22 -2236 0 -2235 0 29 -50z"/>
<path d="M2649 3376 c-19 -35 -173 -302 -253 -439 -10 -18 -79 -138 -154 -267
-74 -129 -191 -331 -259 -448 -67 -117 -123 -215 -123 -218 0 -3 -8 -17 -19
-32 -10 -15 -63 -106 -119 -202 -55 -96 -109 -191 -121 -210 -57 -97 -60 -73
31 -232 44 -79 90 -159 101 -178 10 -19 52 -91 92 -160 40 -69 86 -150 103
-180 16 -30 69 -122 117 -205 48 -82 91 -159 96 -170 5 -11 26 -48 47 -82 l38
-62 194 341 c107 188 208 364 224 392 15 28 94 166 174 306 80 140 158 278
173 306 l28 50 -23 40 c-12 21 -59 101 -104 177 -45 76 -82 140 -82 142 0 3
98 5 218 5 l217 0 50 87 c28 47 62 107 76 132 15 25 120 208 234 406 115 198
216 374 225 391 51 89 175 302 186 319 8 11 14 23 14 27 0 5 -305 8 -678 8
l-678 0 -25 -44z m713 -378 c-28 -48 -126 -217 -150 -260 -61 -109 -145 -248
-151 -249 -3 -1 -106 -2 -228 -3 l-222 -1 32 55 c17 30 53 93 80 140 27 47 83
145 125 218 l76 132 229 0 229 0 -20 -32z m-948 -960 c10 -18 27 -50 39 -70
89 -151 142 -245 145 -254 2 -7 -59 -119 -136 -250 -76 -132 -152 -263 -168
-291 -16 -29 -32 -53 -35 -53 -3 0 -12 12 -20 27 -8 15 -55 97 -106 182 -87
146 -91 156 -78 180 7 14 70 125 140 246 141 244 156 270 174 303 14 27 23 23
45 -20z"/>
</g>
</svg>
